<mxfile host="app.diagrams.net" modified="2021-01-27T05:25:35.236Z" agent="5.0 (Windows NT 10.0; Win64; x64) AppleWebKit/537.36 (KHTML, like Gecko) Chrome/87.0.4280.141 Safari/537.36" etag="TwHcSTjipbSOnxoUtVhW" version="14.2.7" type="github">
  <diagram id="fgFUX0bSdlkSgKF503U3" name="Page-1">
    <mxGraphModel dx="1038" dy="548" grid="1" gridSize="10" guides="1" tooltips="1" connect="1" arrows="1" fold="1" page="1" pageScale="1" pageWidth="827" pageHeight="1169" math="0" shadow="0">
      <root>
        <mxCell id="0" />
        <mxCell id="1" parent="0" />
        <mxCell id="iNdWvLnNaYyDMu5d7_59-1" value="" style="endArrow=none;html=1;" edge="1" parent="1">
          <mxGeometry width="50" height="50" relative="1" as="geometry">
            <mxPoint x="400" y="330" as="sourcePoint" />
            <mxPoint x="400" y="90" as="targetPoint" />
          </mxGeometry>
        </mxCell>
        <mxCell id="iNdWvLnNaYyDMu5d7_59-2" value="" style="endArrow=none;html=1;" edge="1" parent="1">
          <mxGeometry width="50" height="50" relative="1" as="geometry">
            <mxPoint x="200" y="120" as="sourcePoint" />
            <mxPoint x="560" y="120" as="targetPoint" />
          </mxGeometry>
        </mxCell>
        <mxCell id="iNdWvLnNaYyDMu5d7_59-3" value="&lt;b&gt;&lt;font style=&quot;font-size: 16px&quot;&gt;CLK&lt;/font&gt;&lt;/b&gt;" style="text;html=1;strokeColor=none;fillColor=none;align=center;verticalAlign=middle;whiteSpace=wrap;rounded=0;" vertex="1" parent="1">
          <mxGeometry x="210" y="90" width="40" height="20" as="geometry" />
        </mxCell>
        <mxCell id="iNdWvLnNaYyDMu5d7_59-4" value="&lt;b&gt;&lt;font style=&quot;font-size: 16px&quot;&gt;S&lt;/font&gt;&lt;/b&gt;" style="text;html=1;strokeColor=none;fillColor=none;align=center;verticalAlign=middle;whiteSpace=wrap;rounded=0;" vertex="1" parent="1">
          <mxGeometry x="280" y="90" width="40" height="20" as="geometry" />
        </mxCell>
        <mxCell id="iNdWvLnNaYyDMu5d7_59-5" value="&lt;b&gt;&lt;font style=&quot;font-size: 16px&quot;&gt;R&lt;/font&gt;&lt;/b&gt;" style="text;html=1;strokeColor=none;fillColor=none;align=center;verticalAlign=middle;whiteSpace=wrap;rounded=0;" vertex="1" parent="1">
          <mxGeometry x="340" y="90" width="40" height="20" as="geometry" />
        </mxCell>
        <mxCell id="iNdWvLnNaYyDMu5d7_59-6" value="&lt;b&gt;&lt;font style=&quot;font-size: 16px&quot;&gt;Qn+1&lt;/font&gt;&lt;/b&gt;" style="text;html=1;strokeColor=none;fillColor=none;align=center;verticalAlign=middle;whiteSpace=wrap;rounded=0;" vertex="1" parent="1">
          <mxGeometry x="414" y="90" width="40" height="20" as="geometry" />
        </mxCell>
        <mxCell id="iNdWvLnNaYyDMu5d7_59-7" value="&lt;b&gt;&lt;font style=&quot;font-size: 16px&quot;&gt;Q&#39;n+1&lt;/font&gt;&lt;/b&gt;" style="text;html=1;strokeColor=none;fillColor=none;align=center;verticalAlign=middle;whiteSpace=wrap;rounded=0;" vertex="1" parent="1">
          <mxGeometry x="480" y="90" width="40" height="20" as="geometry" />
        </mxCell>
        <mxCell id="iNdWvLnNaYyDMu5d7_59-8" value="&lt;b&gt;&lt;font style=&quot;font-size: 16px&quot;&gt;0&lt;/font&gt;&lt;/b&gt;" style="text;html=1;strokeColor=none;fillColor=none;align=center;verticalAlign=middle;whiteSpace=wrap;rounded=0;" vertex="1" parent="1">
          <mxGeometry x="210" y="130" width="40" height="20" as="geometry" />
        </mxCell>
        <mxCell id="iNdWvLnNaYyDMu5d7_59-9" value="&lt;b&gt;&lt;font style=&quot;font-size: 16px&quot;&gt;1&lt;/font&gt;&lt;/b&gt;" style="text;html=1;strokeColor=none;fillColor=none;align=center;verticalAlign=middle;whiteSpace=wrap;rounded=0;" vertex="1" parent="1">
          <mxGeometry x="210" y="170" width="40" height="20" as="geometry" />
        </mxCell>
        <mxCell id="iNdWvLnNaYyDMu5d7_59-10" value="&lt;b&gt;&lt;font style=&quot;font-size: 16px&quot;&gt;1&lt;/font&gt;&lt;/b&gt;" style="text;html=1;strokeColor=none;fillColor=none;align=center;verticalAlign=middle;whiteSpace=wrap;rounded=0;" vertex="1" parent="1">
          <mxGeometry x="210" y="210" width="40" height="20" as="geometry" />
        </mxCell>
        <mxCell id="iNdWvLnNaYyDMu5d7_59-11" value="&lt;b&gt;&lt;font style=&quot;font-size: 16px&quot;&gt;1&lt;/font&gt;&lt;/b&gt;" style="text;html=1;strokeColor=none;fillColor=none;align=center;verticalAlign=middle;whiteSpace=wrap;rounded=0;" vertex="1" parent="1">
          <mxGeometry x="210" y="250" width="40" height="20" as="geometry" />
        </mxCell>
        <mxCell id="iNdWvLnNaYyDMu5d7_59-12" value="&lt;b&gt;&lt;font style=&quot;font-size: 16px&quot;&gt;1&lt;/font&gt;&lt;/b&gt;" style="text;html=1;strokeColor=none;fillColor=none;align=center;verticalAlign=middle;whiteSpace=wrap;rounded=0;" vertex="1" parent="1">
          <mxGeometry x="210" y="290" width="40" height="20" as="geometry" />
        </mxCell>
        <mxCell id="iNdWvLnNaYyDMu5d7_59-13" value="&lt;b&gt;&lt;font style=&quot;font-size: 16px&quot;&gt;X&lt;/font&gt;&lt;/b&gt;" style="text;html=1;strokeColor=none;fillColor=none;align=center;verticalAlign=middle;whiteSpace=wrap;rounded=0;" vertex="1" parent="1">
          <mxGeometry x="280" y="130" width="40" height="20" as="geometry" />
        </mxCell>
        <mxCell id="iNdWvLnNaYyDMu5d7_59-14" value="&lt;b&gt;&lt;font style=&quot;font-size: 16px&quot;&gt;0&lt;/font&gt;&lt;/b&gt;" style="text;html=1;strokeColor=none;fillColor=none;align=center;verticalAlign=middle;whiteSpace=wrap;rounded=0;" vertex="1" parent="1">
          <mxGeometry x="280" y="170" width="40" height="20" as="geometry" />
        </mxCell>
        <mxCell id="iNdWvLnNaYyDMu5d7_59-15" value="&lt;b&gt;&lt;font style=&quot;font-size: 16px&quot;&gt;0&lt;/font&gt;&lt;/b&gt;" style="text;html=1;strokeColor=none;fillColor=none;align=center;verticalAlign=middle;whiteSpace=wrap;rounded=0;" vertex="1" parent="1">
          <mxGeometry x="280" y="210" width="40" height="20" as="geometry" />
        </mxCell>
        <mxCell id="iNdWvLnNaYyDMu5d7_59-16" value="&lt;b&gt;&lt;font style=&quot;font-size: 16px&quot;&gt;1&lt;/font&gt;&lt;/b&gt;" style="text;html=1;strokeColor=none;fillColor=none;align=center;verticalAlign=middle;whiteSpace=wrap;rounded=0;" vertex="1" parent="1">
          <mxGeometry x="280" y="250" width="40" height="20" as="geometry" />
        </mxCell>
        <mxCell id="iNdWvLnNaYyDMu5d7_59-17" value="&lt;b&gt;&lt;font style=&quot;font-size: 16px&quot;&gt;1&lt;/font&gt;&lt;/b&gt;" style="text;html=1;strokeColor=none;fillColor=none;align=center;verticalAlign=middle;whiteSpace=wrap;rounded=0;" vertex="1" parent="1">
          <mxGeometry x="280" y="290" width="40" height="20" as="geometry" />
        </mxCell>
        <mxCell id="iNdWvLnNaYyDMu5d7_59-18" value="&lt;b&gt;&lt;font style=&quot;font-size: 16px&quot;&gt;X&lt;/font&gt;&lt;/b&gt;" style="text;html=1;strokeColor=none;fillColor=none;align=center;verticalAlign=middle;whiteSpace=wrap;rounded=0;" vertex="1" parent="1">
          <mxGeometry x="340" y="130" width="40" height="20" as="geometry" />
        </mxCell>
        <mxCell id="iNdWvLnNaYyDMu5d7_59-19" value="&lt;b&gt;&lt;font style=&quot;font-size: 16px&quot;&gt;0&lt;/font&gt;&lt;/b&gt;" style="text;html=1;strokeColor=none;fillColor=none;align=center;verticalAlign=middle;whiteSpace=wrap;rounded=0;" vertex="1" parent="1">
          <mxGeometry x="340" y="170" width="40" height="20" as="geometry" />
        </mxCell>
        <mxCell id="iNdWvLnNaYyDMu5d7_59-20" value="&lt;b&gt;&lt;font style=&quot;font-size: 16px&quot;&gt;1&lt;/font&gt;&lt;/b&gt;" style="text;html=1;strokeColor=none;fillColor=none;align=center;verticalAlign=middle;whiteSpace=wrap;rounded=0;" vertex="1" parent="1">
          <mxGeometry x="340" y="210" width="40" height="20" as="geometry" />
        </mxCell>
        <mxCell id="iNdWvLnNaYyDMu5d7_59-21" value="&lt;b&gt;&lt;font style=&quot;font-size: 16px&quot;&gt;0&lt;/font&gt;&lt;/b&gt;" style="text;html=1;strokeColor=none;fillColor=none;align=center;verticalAlign=middle;whiteSpace=wrap;rounded=0;" vertex="1" parent="1">
          <mxGeometry x="340" y="250" width="40" height="20" as="geometry" />
        </mxCell>
        <mxCell id="iNdWvLnNaYyDMu5d7_59-22" value="&lt;b&gt;&lt;font style=&quot;font-size: 16px&quot;&gt;1&lt;/font&gt;&lt;/b&gt;" style="text;html=1;strokeColor=none;fillColor=none;align=center;verticalAlign=middle;whiteSpace=wrap;rounded=0;" vertex="1" parent="1">
          <mxGeometry x="340" y="290" width="40" height="20" as="geometry" />
        </mxCell>
        <mxCell id="iNdWvLnNaYyDMu5d7_59-23" value="&lt;b&gt;&lt;font style=&quot;font-size: 16px&quot;&gt;Qn&lt;/font&gt;&lt;/b&gt;" style="text;html=1;strokeColor=none;fillColor=none;align=center;verticalAlign=middle;whiteSpace=wrap;rounded=0;" vertex="1" parent="1">
          <mxGeometry x="414" y="130" width="40" height="20" as="geometry" />
        </mxCell>
        <mxCell id="iNdWvLnNaYyDMu5d7_59-24" value="&lt;b&gt;&lt;font style=&quot;font-size: 16px&quot;&gt;Q&#39;n&lt;/font&gt;&lt;/b&gt;" style="text;html=1;strokeColor=none;fillColor=none;align=center;verticalAlign=middle;whiteSpace=wrap;rounded=0;" vertex="1" parent="1">
          <mxGeometry x="480" y="130" width="40" height="20" as="geometry" />
        </mxCell>
        <mxCell id="iNdWvLnNaYyDMu5d7_59-25" value="&lt;b&gt;&lt;font style=&quot;font-size: 16px&quot;&gt;Qn&lt;/font&gt;&lt;/b&gt;" style="text;html=1;strokeColor=none;fillColor=none;align=center;verticalAlign=middle;whiteSpace=wrap;rounded=0;" vertex="1" parent="1">
          <mxGeometry x="414" y="170" width="40" height="20" as="geometry" />
        </mxCell>
        <mxCell id="iNdWvLnNaYyDMu5d7_59-26" value="&lt;b&gt;&lt;font style=&quot;font-size: 16px&quot;&gt;0&lt;/font&gt;&lt;/b&gt;" style="text;html=1;strokeColor=none;fillColor=none;align=center;verticalAlign=middle;whiteSpace=wrap;rounded=0;" vertex="1" parent="1">
          <mxGeometry x="414" y="210" width="40" height="20" as="geometry" />
        </mxCell>
        <mxCell id="iNdWvLnNaYyDMu5d7_59-27" value="&lt;b&gt;&lt;font style=&quot;font-size: 16px&quot;&gt;1&lt;/font&gt;&lt;/b&gt;" style="text;html=1;strokeColor=none;fillColor=none;align=center;verticalAlign=middle;whiteSpace=wrap;rounded=0;" vertex="1" parent="1">
          <mxGeometry x="414" y="250" width="40" height="20" as="geometry" />
        </mxCell>
        <mxCell id="iNdWvLnNaYyDMu5d7_59-28" value="&lt;b&gt;&lt;font style=&quot;font-size: 16px&quot;&gt;Q&#39;n&lt;/font&gt;&lt;/b&gt;" style="text;html=1;strokeColor=none;fillColor=none;align=center;verticalAlign=middle;whiteSpace=wrap;rounded=0;" vertex="1" parent="1">
          <mxGeometry x="480" y="170" width="40" height="20" as="geometry" />
        </mxCell>
        <mxCell id="iNdWvLnNaYyDMu5d7_59-29" value="&lt;b&gt;&lt;font style=&quot;font-size: 16px&quot;&gt;1&lt;/font&gt;&lt;/b&gt;" style="text;html=1;strokeColor=none;fillColor=none;align=center;verticalAlign=middle;whiteSpace=wrap;rounded=0;" vertex="1" parent="1">
          <mxGeometry x="480" y="210" width="40" height="20" as="geometry" />
        </mxCell>
        <mxCell id="iNdWvLnNaYyDMu5d7_59-30" value="&lt;b&gt;&lt;font style=&quot;font-size: 16px&quot;&gt;0&lt;/font&gt;&lt;/b&gt;" style="text;html=1;strokeColor=none;fillColor=none;align=center;verticalAlign=middle;whiteSpace=wrap;rounded=0;" vertex="1" parent="1">
          <mxGeometry x="480" y="250" width="40" height="20" as="geometry" />
        </mxCell>
        <mxCell id="iNdWvLnNaYyDMu5d7_59-31" value="&lt;b&gt;&lt;font style=&quot;font-size: 16px&quot;&gt;Not Used&lt;/font&gt;&lt;/b&gt;" style="text;html=1;strokeColor=none;fillColor=none;align=center;verticalAlign=middle;whiteSpace=wrap;rounded=0;" vertex="1" parent="1">
          <mxGeometry x="414" y="290" width="126" height="20" as="geometry" />
        </mxCell>
      </root>
    </mxGraphModel>
  </diagram>
</mxfile>
